<svg viewBox="0 0 1024 1024" xmlns="http://www.w3.org/2000/svg"><path d="M810.667 128H213.333C166.4 128 128 166.4 128 213.333v597.334C128 857.6 166.4 896 213.333 896h597.334C857.6 896 896 857.6 896 810.667V213.333C896 166.4 857.6 128 810.667 128ZM426.667 533.333H341.333V576h128V640H277.333v-106.667c0-23.466 19.2-42.666 42.667-42.666h85.333v-42.667h-128V384h149.334c23.466 0 42.666 19.2 42.666 42.667v64c0 23.466-19.2 42.666-42.666 42.666ZM768 640h-74.667l-74.666-96v96h-64V384h64v96l74.666-96H768l-96 128 96 128Z" fill="#636870"/></svg>
